<svg width="332" height="92" viewBox="0 0 332 92" fill="none" xmlns="http://www.w3.org/2000/svg">
  <defs>
    <linearGradient id="markPlate" x1="10" y1="8" x2="86" y2="84" gradientUnits="userSpaceOnUse">
      <stop offset="0" stop-color="#1D2A49"/>
      <stop offset="1" stop-color="#0B162D"/>
    </linearGradient>
    <linearGradient id="markStroke" x1="26" y1="16" x2="76" y2="74" gradientUnits="userSpaceOnUse">
      <stop offset="0" stop-color="#8BE9FF"/>
      <stop offset="1" stop-color="#5AA5FF"/>
    </linearGradient>
    <linearGradient id="wordFill" x1="104" y1="20" x2="318" y2="74" gradientUnits="userSpaceOnUse">
      <stop offset="0" stop-color="#EEF4FF"/>
      <stop offset="1" stop-color="#C4D8FF"/>
    </linearGradient>
    <filter id="brandGlow" x="-28%" y="-34%" width="170%" height="180%">
      <feDropShadow dx="0" dy="6" stdDeviation="8" flood-color="#0A1328" flood-opacity="0.5"/>
    </filter>
    <filter id="accentGlow" x="-30%" y="-30%" width="170%" height="170%">
      <feDropShadow dx="0" dy="0" stdDeviation="2.2" flood-color="#6AD0FF" flood-opacity="0.65"/>
    </filter>
  </defs>

  <g filter="url(#brandGlow)">
    <rect x="10" y="10" width="72" height="72" rx="22" fill="url(#markPlate)"/>
    <rect x="10.7" y="10.7" width="70.6" height="70.6" rx="21.3" stroke="#86A9DB" stroke-opacity="0.26" stroke-width="1.4"/>

    <circle cx="46" cy="46" r="25" fill="#0C1833" fill-opacity="0.88"/>
    <circle cx="46" cy="46" r="25.6" stroke="#9CC0F8" stroke-opacity="0.22" stroke-width="1.2"/>

    <g filter="url(#accentGlow)">
      <path d="M33 26V66" stroke="url(#markStroke)" stroke-width="7.4" stroke-linecap="round"/>
      <path d="M34 46L57 27" stroke="url(#markStroke)" stroke-width="7.4" stroke-linecap="round"/>
      <path d="M34 46L58 66" stroke="url(#markStroke)" stroke-width="7.4" stroke-linecap="round"/>
      <path d="M24 59C31 72 50 74 66 62" stroke="#7FD7FF" stroke-width="2.6" stroke-linecap="round" stroke-opacity="0.9"/>
    </g>

    <path d="M64 23V33M59 28H69" stroke="#9EDBFF" stroke-width="2.8" stroke-linecap="round"/>
  </g>

  <text
    x="102"
    y="49"
    fill="url(#wordFill)"
    stroke="#22375E"
    stroke-opacity="0.38"
    stroke-width="0.9"
    font-family="'Manrope','Segoe UI',sans-serif"
    font-weight="800"
    font-size="34"
    letter-spacing="0.6"
  >
    KKEUT
  </text>
  <text
    x="104"
    y="71"
    fill="#AAC0E6"
    font-family="'Manrope','Segoe UI',sans-serif"
    font-weight="600"
    font-size="13"
    letter-spacing="4"
  >
    CHART
  </text>
</svg>
